<svg version="1.1" id="Layer_1" xmlns="http://www.w3.org/2000/svg" xmlns:xlink="http://www.w3.org/1999/xlink" x="0px" y="0px"
	 viewBox="0 0 256 256" style="enable-background:new 0 0 256 256;" xml:space="preserve">
<style type="text/css">
.st0{fill:#53B6E4;}
.st1{fill:#B2CED8;}
.st2{font-family: "Kalam-Bold", cursive;}
.st3{font-size:22px;}
.st4{fill:none;stroke:#B2091F;stroke-width:8;stroke-linecap:round;stroke-miterlimit:10;}
</style>
<g>
<path class="st0" d="M245.6,84.4c-2.7-1.8-5.1-4.4-9.1-4.6c-2.3-0.1-4.5-2.6-6.7-4c-0.4-0.2-0.6-0.9-0.9-0.9c-3.4,0-5-3.7-8.2-4.1
		c-0.1,0-0.3-0.1-0.4-0.2c-3.9-4.7-10.1-5.8-14.5-9.6c-0.2-0.1-0.5-0.2-0.5-0.4c-0.3-3.2-3.2-2.9-5.1-3.8c-0.4-0.2-1.1,0.3-1.7,0.4
		c-1.1-0.6-2.2-1.5-3.4-1.9c-1.8-0.6-3.9-0.6-4.3-3.1c0,0-0.1-0.1-0.1-0.2c-5.1-2.9-6.9-8.8-11.5-12c-2-1.4-4.3-2.6-6.5-3.8
		c-0.3-0.2-0.9-0.3-0.9-0.5c-0.3-3.5-3.4-3.4-5.5-3.9c-2.9-0.6-4.5-2.8-6.4-4.4c-1.8-1.5-1.6-3.6-1.3-5.8c0.5-3.6,0.4-7.3,0.4-10.9
		c0-0.8-0.4-1.7-0.9-2.2c-3.3-3.2-7-5.5-11.8-4.9c-5.2,0.7-9,3.4-11,8.5c-0.4,1-0.8,2.1-1.2,3.2c-1.5,3.5-2.9,6.9,0.6,10.5
		c-3.6,0.5-4,3.2-5.2,5.5c-1.4,2.7-2.5,5.7-5.8,7.2c-1.8,0.8-3.1,2.8-4.7,4.2c-0.2,0.1-0.4,0.4-0.5,0.4c-2.7-1.4-3.7,1.4-5.1,2.4
		c-2.8,2-5.6,4.2-7.1,7.5c-0.4,0.8-1.5,1.3-2.3,1.9c-1.4,1-2.8,1.9-4.2,2.9c-2.3,1.5-4.4,3.9-6.9,4.4c-3.6,0.8-6.6,2.6-9.8,4
		c-6.1,2.7-11.9,6-17.9,9c-3,1.5-6.3,2.7-8.9,4.6c-5.9,4.4-13.5,5.2-19.4,9.5c-0.9,0.7-2.4,0.5-3.7,0.8c0,0.6,0,1.2,0,1.8
		c0.9,1.3,1.8,2.5,2.7,3.8c1.8,3,3,6.6,6.6,8.2c0.4,0.1,0.6,0.7,0.9,1c3.3,4.2,6.5,8.4,10,12.5c2.3,2.8,4.8,5.7,7.6,7.9
		c6,4.6,12.1,8.8,18.4,13c27.6,18.7,56.1,36,84.7,53.1c11.6,7,23.3,14,35,20.9c6.4,3.7,13.4,4.9,20.6,3.9c2.3-0.3,4.7-1.5,6.8-2.7
		c2.4-1.5,3-3.7,2.2-6.5c-0.9-3-2.9-5.1-5.6-6.5c-4.2-2.1-8.4-4.4-12.9-5.7c-18.8-5.7-36.3-14-53-24.4c-2.5-1.6-3.1-3.5-1.9-6.1
		c0.4-0.8,0.6-1.7,0.9-2.5c3.5-0.7,5.4-3.4,4.7-6.6c-0.3-1.2,0.4-1.9,1.7-2c1-0.1,2.6-0.3,3-1c1.6-2.7,3.7-5.5,4.1-8.3
		c0.8-6.6,0.2-13.4,1-19.9c0.5-3.7-1.5-8.3,2.9-11c0.4-0.3,0.5-1,0.8-1.6c1.7-3.7,3.5-7.4,5.1-11.2c1.4-3.1,2.8-6.1,3.6-9.3
		c0.4-1.6-1.3-3.6-0.9-5.2c0.7-3.5-1.5-6.2-2.1-9.3c-0.6-3-2.1-5.9-3.8-8.5c-1.2-2-1.1-3.8-0.9-6.1c0.6,0.7,1,1.1,1.4,1.6
		c1.8,1.9,3.2,4.6,5.3,5.7c4.5,2.5,9.2,4.7,14.1,6.1c4.6,1.3,9.2,2.4,13.5,4.6s8.8,4.2,13.2,6.2c3.3,1.4,6.2,3.2,8.1,6.5
		c0.4,0.6,0.9,1.3,1.5,1.7c0.9,0.5,2.3,1.3,3,1c1.4-0.7,1.3-2.2,0.7-3.6c-0.3-0.7-0.4-1.6-0.7-2.7c2.4,0.3,4.4,0.5,6.2,0.7
		c0.6,1.7-0.1,3.8,2.5,4.3c0.4-0.9,0.8-1.8,1.4-3.2c0.8,1.4,1.4,2.5,2.1,3.6c0.9,1.4,1.8,2.1,2.6,0.5c1.2,0,2.1,0,3,0
		c0-0.8,0-1.5,0-2.3C250.6,89.6,248.4,86.4,245.6,84.4z M86.2,107.1c-1.1,0.5-1.8,0.3-2.8-0.6c-2.8-2.7-4.9-2.8-8.2-0.8
		c-1.5,0.9-3.1,1.8-4.7,2.6c-2.1,1-2.8,2.8-2.9,4.9c-0.2,2.6-1,3-3.2,1.6c-5.5-3.7-11.1-7.4-16.6-11.2c-1.4-1-2.5-2.6-3.1-4.2
		C44.1,97.5,45,96,46.9,95c3.6-1.8,7.2-3.7,10.9-5.5c2.2,1.9,2.7,1.9,5.3,0.1c0.4-0.3,0.7-0.6,1.1-0.7c6-1.4,11.3-4.6,17.5-5.4
		c3.5-0.5,6.7-3.2,10-4.8c0.7-0.3,1.6-0.9,2.2-0.6c3.5,1.6,6.5,0.9,9.2-1.7c0.2-0.2,0.5-0.3,0.8-0.4c0.2,0.1,0.4,0.3,0.6,0.4
		c-5.3,10-10.6,20-16.1,30.3C87.9,106.7,87,106.7,86.2,107.1z M141,128c-1,2.3-2.1,4.6-3,7c-0.4,1-0.3,2.3-0.4,3.9
		c-1.1,0.4-2.4,0.7-3.7,1.2c-2.9,1.2-5.5,2.6-6,6.3c-0.1,1-0.9,2.1-1.5,3c-1.3,1.8-2.8,2.2-4.7,1.1c-6.6-3.8-13.2-7.7-19.9-11.6
		c3.3-5.5,6.5-10.7,9.8-16c1-1.7,2.2-3.3,3.6-4.7c3.3-3.4,3.8-7.9,5.2-12.1c0.5-1.4,0.4-2.8,0.8-4.2c0.4-1.3,0.9-2.4,1.7-4.3
		c0.6,1.5,1.1,2.4,1.4,3.3c1.8,6.1,5.5,10.7,11.5,13.4C141.3,116.8,143.4,122.2,141,128z"></path>
</g>
<text transform="matrix(1 0 0 1 20.05 221.7422)" class="st1 st2 st3">Mr. Zirka’s  site</text>

<path id="myLine" class="st4" d="M 0,235 L 256,235" />

<animate
	xlink:href="#myLine"
	attributeName="d" 
  dur="1200ms" 
	repeatCount="indefinite"
	keyTimes="0;1"
  from="M 0,235 L 0,235"
  to="M 0,235 L 256,235"
></animate>


</svg>
